<svg width="48" height="48" viewBox="0 0 48 48" fill="none" xmlns="http://www.w3.org/2000/svg">
<circle r="24" transform="matrix(-1 0 0 1 24 24)" fill="white"/>
<path d="M37 23C37.5523 23 38 23.4477 38 24C38 24.5523 37.5523 25 37 25V23ZM10.2929 24.7071C9.90237 24.3166 9.90237 23.6834 10.2929 23.2929L16.6569 16.9289C17.0474 16.5384 17.6805 16.5384 18.0711 16.9289C18.4616 17.3195 18.4616 17.9526 18.0711 18.3431L12.4142 24L18.0711 29.6569C18.4616 30.0474 18.4616 30.6805 18.0711 31.0711C17.6805 31.4616 17.0474 31.4616 16.6569 31.0711L10.2929 24.7071ZM37 25H11V23H37V25Z" fill="#1E1B1B"/>
</svg>
