<svg width="56" height="56" viewBox="0 0 56 56" fill="none" xmlns="http://www.w3.org/2000/svg">
<g filter="url(#filter0_d_926_12)">
<ellipse cx="28" cy="23.9995" rx="24" ry="24" fill="white"/>
<path d="M17.7148 22.9995C17.1626 22.9995 16.7148 23.4472 16.7148 23.9995C16.7148 24.5518 17.1626 24.9995 17.7148 24.9995V22.9995ZM38.551 24.7066C38.9415 24.3161 38.9415 23.6829 38.551 23.2924L32.187 16.9284C31.7965 16.5379 31.1633 16.5379 30.7728 16.9284C30.3823 17.319 30.3823 17.9521 30.7728 18.3427L36.4297 23.9995L30.7728 29.6564C30.3823 30.0469 30.3823 30.6801 30.7728 31.0706C31.1633 31.4611 31.7965 31.4611 32.187 31.0706L38.551 24.7066ZM17.7148 24.9995H37.8439V22.9995H17.7148V24.9995Z" fill="#1E1B1B"/>
</g>
<defs>
<filter id="filter0_d_926_12" x="0" y="-0.000488281" width="56" height="56" filterUnits="userSpaceOnUse" color-interpolation-filters="sRGB">
<feFlood flood-opacity="0" result="BackgroundImageFix"/>
<feColorMatrix in="SourceAlpha" type="matrix" values="0 0 0 0 0 0 0 0 0 0 0 0 0 0 0 0 0 0 127 0" result="hardAlpha"/>
<feOffset dy="4"/>
<feGaussianBlur stdDeviation="2"/>
<feComposite in2="hardAlpha" operator="out"/>
<feColorMatrix type="matrix" values="0 0 0 0 0 0 0 0 0 0 0 0 0 0 0 0 0 0 0.25 0"/>
<feBlend mode="normal" in2="BackgroundImageFix" result="effect1_dropShadow_926_12"/>
<feBlend mode="normal" in="SourceGraphic" in2="effect1_dropShadow_926_12" result="shape"/>
</filter>
</defs>
</svg>
