<svg width="70" height="70" viewBox="0 0 70 70" fill="none" xmlns="http://www.w3.org/2000/svg">
<g filter="url(#filter0_d_704_21)">
<g filter="url(#filter1_i_704_21)">
<circle cx="35" cy="31" r="31" fill="#1E1B1B"/>
</g>
<path d="M22 31C21.4477 31 21 31.4477 21 32C21 32.5523 21.4477 33 22 33V31ZM48.7071 32.7071C49.0976 32.3166 49.0976 31.6834 48.7071 31.2929L42.3431 24.9289C41.9526 24.5384 41.3195 24.5384 40.9289 24.9289C40.5384 25.3195 40.5384 25.9526 40.9289 26.3431L46.5858 32L40.9289 37.6569C40.5384 38.0474 40.5384 38.6805 40.9289 39.0711C41.3195 39.4616 41.9526 39.4616 42.3431 39.0711L48.7071 32.7071ZM22 33H48V31H22V33Z" fill="#F2F2F2"/>
</g>
<defs>
<filter id="filter0_d_704_21" x="0" y="0" width="70" height="70" filterUnits="userSpaceOnUse" color-interpolation-filters="sRGB">
<feFlood flood-opacity="0" result="BackgroundImageFix"/>
<feColorMatrix in="SourceAlpha" type="matrix" values="0 0 0 0 0 0 0 0 0 0 0 0 0 0 0 0 0 0 127 0" result="hardAlpha"/>
<feOffset dy="4"/>
<feGaussianBlur stdDeviation="2"/>
<feComposite in2="hardAlpha" operator="out"/>
<feColorMatrix type="matrix" values="0 0 0 0 0 0 0 0 0 0 0 0 0 0 0 0 0 0 0.25 0"/>
<feBlend mode="normal" in2="BackgroundImageFix" result="effect1_dropShadow_704_21"/>
<feBlend mode="normal" in="SourceGraphic" in2="effect1_dropShadow_704_21" result="shape"/>
</filter>
<filter id="filter1_i_704_21" x="4" y="0" width="62" height="66" filterUnits="userSpaceOnUse" color-interpolation-filters="sRGB">
<feFlood flood-opacity="0" result="BackgroundImageFix"/>
<feBlend mode="normal" in="SourceGraphic" in2="BackgroundImageFix" result="shape"/>
<feColorMatrix in="SourceAlpha" type="matrix" values="0 0 0 0 0 0 0 0 0 0 0 0 0 0 0 0 0 0 127 0" result="hardAlpha"/>
<feOffset dy="4"/>
<feGaussianBlur stdDeviation="2"/>
<feComposite in2="hardAlpha" operator="arithmetic" k2="-1" k3="1"/>
<feColorMatrix type="matrix" values="0 0 0 0 0 0 0 0 0 0 0 0 0 0 0 0 0 0 0.25 0"/>
<feBlend mode="normal" in2="shape" result="effect1_innerShadow_704_21"/>
</filter>
</defs>
</svg>
