<svg width="375" height="56" viewBox="0 0 375 56" fill="none" xmlns="http://www.w3.org/2000/svg">
<path d="M45.2444 47H47.0174V38.126L51.2114 47H52.0664L56.2514 38.126V46.991H58.0334V34.04H56.3144L51.6434 43.787L46.9454 34.04H45.2444V47ZM64.7759 47.27C65.7419 47.27 66.5819 47.054 67.2959 46.622C68.0099 46.184 68.5619 45.581 68.9519 44.813C69.3479 44.039 69.5459 43.145 69.5459 42.131C69.5459 41.129 69.3509 40.244 68.9609 39.476C68.5709 38.702 68.0189 38.099 67.3049 37.667C66.5909 37.229 65.7479 37.01 64.7759 37.01C63.8219 37.01 62.9879 37.226 62.2739 37.658C61.5599 38.09 61.0049 38.69 60.6089 39.458C60.2129 40.226 60.0149 41.117 60.0149 42.131C60.0149 43.133 60.2099 44.021 60.5999 44.795C60.9899 45.569 61.5389 46.175 62.2469 46.613C62.9609 47.051 63.8039 47.27 64.7759 47.27ZM64.7759 45.497C63.8699 45.497 63.1829 45.194 62.7149 44.588C62.2469 43.976 62.0129 43.157 62.0129 42.131C62.0129 41.141 62.2379 40.337 62.6879 39.719C63.1379 39.095 63.8339 38.783 64.7759 38.783C65.6939 38.783 66.3839 39.086 66.8459 39.692C67.3139 40.298 67.5479 41.111 67.5479 42.131C67.5479 43.127 67.3169 43.937 66.8549 44.561C66.3989 45.185 65.7059 45.497 64.7759 45.497ZM71.5147 47H73.4227V41.942C73.4227 41.174 73.5337 40.562 73.7557 40.106C73.9837 39.644 74.2837 39.311 74.6557 39.107C75.0277 38.903 75.4387 38.801 75.8887 38.801C76.4047 38.801 76.8247 38.906 77.1487 39.116C77.4727 39.326 77.7217 39.602 77.8957 39.944C78.0697 40.286 78.1867 40.658 78.2467 41.06C78.3127 41.456 78.3457 41.843 78.3457 42.221V47H80.2537V41.6C80.2537 41.3 80.2267 40.952 80.1727 40.556C80.1187 40.16 80.0167 39.755 79.8667 39.341C79.7167 38.927 79.4977 38.546 79.2097 38.198C78.9277 37.844 78.5587 37.559 78.1027 37.343C77.6467 37.127 77.0827 37.019 76.4107 37.019C75.7087 37.019 75.0847 37.145 74.5387 37.397C73.9987 37.649 73.5517 37.997 73.1977 38.441V37.28H71.5147V47ZM86.3358 47.27C86.9478 47.27 87.4938 47.168 87.9738 46.964C88.4598 46.76 88.8798 46.475 89.2338 46.109V47H90.9078V34.04H89.0178V37.946C88.6818 37.646 88.2918 37.415 87.8478 37.253C87.4038 37.091 86.9118 37.01 86.3718 37.01C85.4598 37.01 84.6708 37.235 84.0048 37.685C83.3448 38.129 82.8348 38.738 82.4748 39.512C82.1148 40.28 81.9348 41.153 81.9348 42.131C81.9348 43.103 82.1118 43.976 82.4658 44.75C82.8258 45.524 83.3358 46.139 83.9958 46.595C84.6558 47.045 85.4358 47.27 86.3358 47.27ZM86.5968 45.569C85.9968 45.569 85.4988 45.416 85.1028 45.11C84.7068 44.804 84.4128 44.393 84.2208 43.877C84.0288 43.355 83.9328 42.773 83.9328 42.131C83.9328 41.495 84.0288 40.919 84.2208 40.403C84.4188 39.887 84.7188 39.476 85.1208 39.17C85.5228 38.864 86.0358 38.711 86.6598 38.711C87.5478 38.711 88.1988 39.029 88.6128 39.665C89.0268 40.301 89.2338 41.123 89.2338 42.131C89.2338 43.139 89.0268 43.964 88.6128 44.606C88.1988 45.248 87.5268 45.569 86.5968 45.569ZM96.171 47.27C97.719 47.27 98.886 46.709 99.672 45.587V47H101.337V41.015C101.337 40.607 101.319 40.226 101.283 39.872C101.247 39.518 101.151 39.182 100.995 38.864C100.695 38.222 100.221 37.754 99.573 37.46C98.931 37.16 98.175 37.01 97.305 37.01C96.183 37.01 95.283 37.256 94.605 37.748C93.927 38.24 93.471 38.903 93.237 39.737L94.992 40.277C95.16 39.737 95.457 39.347 95.883 39.107C96.309 38.867 96.777 38.747 97.287 38.747C98.043 38.747 98.589 38.909 98.925 39.233C99.267 39.551 99.453 40.046 99.483 40.718C98.691 40.826 97.917 40.94 97.161 41.06C96.405 41.174 95.745 41.312 95.181 41.474C94.431 41.714 93.861 42.071 93.471 42.545C93.081 43.019 92.886 43.622 92.886 44.354C92.886 44.882 93.009 45.368 93.255 45.812C93.507 46.25 93.876 46.604 94.362 46.874C94.854 47.138 95.457 47.27 96.171 47.27ZM96.504 45.731C95.904 45.731 95.46 45.593 95.172 45.317C94.89 45.041 94.749 44.714 94.749 44.336C94.749 43.952 94.875 43.649 95.127 43.427C95.385 43.205 95.706 43.028 96.09 42.896C96.498 42.776 96.978 42.671 97.53 42.581C98.088 42.491 98.733 42.392 99.465 42.284C99.459 42.512 99.444 42.767 99.42 43.049C99.396 43.331 99.345 43.583 99.267 43.805C99.195 44.123 99.042 44.429 98.808 44.723C98.58 45.017 98.271 45.26 97.881 45.452C97.497 45.638 97.038 45.731 96.504 45.731ZM104.443 51.32H106.234L111.598 37.28H109.69L106.945 44.588L104.074 37.28H102.112L106.045 46.955L104.443 51.32ZM122.174 47V45.407C121.538 45.503 120.983 45.524 120.509 45.47C120.041 45.41 119.699 45.197 119.483 44.831C119.369 44.633 119.306 44.39 119.294 44.102C119.288 43.814 119.285 43.475 119.285 43.085V38.792H122.174V37.28H119.285V34.58H117.395V37.28H115.532V38.792H117.395V43.175C117.395 43.703 117.401 44.177 117.413 44.597C117.431 45.011 117.545 45.419 117.755 45.821C117.995 46.271 118.346 46.601 118.808 46.811C119.27 47.021 119.795 47.135 120.383 47.153C120.971 47.171 121.568 47.12 122.174 47ZM127.987 47.27C128.953 47.27 129.793 47.054 130.507 46.622C131.221 46.184 131.773 45.581 132.163 44.813C132.559 44.039 132.757 43.145 132.757 42.131C132.757 41.129 132.562 40.244 132.172 39.476C131.782 38.702 131.23 38.099 130.516 37.667C129.802 37.229 128.959 37.01 127.987 37.01C127.033 37.01 126.199 37.226 125.485 37.658C124.771 38.09 124.216 38.69 123.82 39.458C123.424 40.226 123.226 41.117 123.226 42.131C123.226 43.133 123.421 44.021 123.811 44.795C124.201 45.569 124.75 46.175 125.458 46.613C126.172 47.051 127.015 47.27 127.987 47.27ZM127.987 45.497C127.081 45.497 126.394 45.194 125.926 44.588C125.458 43.976 125.224 43.157 125.224 42.131C125.224 41.141 125.449 40.337 125.899 39.719C126.349 39.095 127.045 38.783 127.987 38.783C128.905 38.783 129.595 39.086 130.057 39.692C130.525 40.298 130.759 41.111 130.759 42.131C130.759 43.127 130.528 43.937 130.066 44.561C129.61 45.185 128.917 45.497 127.987 45.497ZM138.338 47H140.219V41.465H144.935V39.575H140.219V35.921H146.015V34.04H138.338V47ZM147.637 47H149.536V42.095C149.536 41.525 149.626 40.997 149.806 40.511C149.986 40.025 150.304 39.635 150.76 39.341C151.084 39.131 151.441 39.008 151.831 38.972C152.221 38.936 152.572 38.96 152.884 39.044V37.28C152.446 37.196 151.981 37.199 151.489 37.289C151.003 37.379 150.577 37.559 150.211 37.829C149.851 38.069 149.551 38.402 149.311 38.828V37.28H147.637V47ZM154.778 35.687H156.659V33.86H154.778V35.687ZM154.778 47H156.659V37.28H154.778V47ZM163.223 47.27C163.835 47.27 164.381 47.168 164.861 46.964C165.347 46.76 165.767 46.475 166.121 46.109V47H167.795V34.04H165.905V37.946C165.569 37.646 165.179 37.415 164.735 37.253C164.291 37.091 163.799 37.01 163.259 37.01C162.347 37.01 161.558 37.235 160.892 37.685C160.232 38.129 159.722 38.738 159.362 39.512C159.002 40.28 158.822 41.153 158.822 42.131C158.822 43.103 158.999 43.976 159.353 44.75C159.713 45.524 160.223 46.139 160.883 46.595C161.543 47.045 162.323 47.27 163.223 47.27ZM163.484 45.569C162.884 45.569 162.386 45.416 161.99 45.11C161.594 44.804 161.3 44.393 161.108 43.877C160.916 43.355 160.82 42.773 160.82 42.131C160.82 41.495 160.916 40.919 161.108 40.403C161.306 39.887 161.606 39.476 162.008 39.17C162.41 38.864 162.923 38.711 163.547 38.711C164.435 38.711 165.086 39.029 165.5 39.665C165.914 40.301 166.121 41.123 166.121 42.131C166.121 43.139 165.914 43.964 165.5 44.606C165.086 45.248 164.414 45.569 163.484 45.569ZM173.058 47.27C174.606 47.27 175.773 46.709 176.559 45.587V47H178.224V41.015C178.224 40.607 178.206 40.226 178.17 39.872C178.134 39.518 178.038 39.182 177.882 38.864C177.582 38.222 177.108 37.754 176.46 37.46C175.818 37.16 175.062 37.01 174.192 37.01C173.07 37.01 172.17 37.256 171.492 37.748C170.814 38.24 170.358 38.903 170.124 39.737L171.879 40.277C172.047 39.737 172.344 39.347 172.77 39.107C173.196 38.867 173.664 38.747 174.174 38.747C174.93 38.747 175.476 38.909 175.812 39.233C176.154 39.551 176.34 40.046 176.37 40.718C175.578 40.826 174.804 40.94 174.048 41.06C173.292 41.174 172.632 41.312 172.068 41.474C171.318 41.714 170.748 42.071 170.358 42.545C169.968 43.019 169.773 43.622 169.773 44.354C169.773 44.882 169.896 45.368 170.142 45.812C170.394 46.25 170.763 46.604 171.249 46.874C171.741 47.138 172.344 47.27 173.058 47.27ZM173.391 45.731C172.791 45.731 172.347 45.593 172.059 45.317C171.777 45.041 171.636 44.714 171.636 44.336C171.636 43.952 171.762 43.649 172.014 43.427C172.272 43.205 172.593 43.028 172.977 42.896C173.385 42.776 173.865 42.671 174.417 42.581C174.975 42.491 175.62 42.392 176.352 42.284C176.346 42.512 176.331 42.767 176.307 43.049C176.283 43.331 176.232 43.583 176.154 43.805C176.082 44.123 175.929 44.429 175.695 44.723C175.467 45.017 175.158 45.26 174.768 45.452C174.384 45.638 173.925 45.731 173.391 45.731ZM181.33 51.32H183.121L188.485 37.28H186.577L183.832 44.588L180.961 37.28H178.999L182.932 46.955L181.33 51.32ZM197.71 33.779C196.9 33.779 196.159 33.974 195.487 34.364C194.815 34.748 194.275 35.27 193.867 35.93C193.465 36.584 193.264 37.316 193.264 38.126C193.264 38.936 193.444 39.662 193.804 40.304C194.17 40.946 194.668 41.453 195.298 41.825C195.928 42.197 196.648 42.383 197.458 42.383C197.992 42.383 198.499 42.281 198.979 42.077C199.459 41.873 199.882 41.588 200.248 41.222V42.77C200.248 43.244 200.131 43.688 199.897 44.102C199.669 44.516 199.348 44.852 198.934 45.11C198.526 45.362 198.055 45.488 197.521 45.488C197.101 45.488 196.705 45.395 196.333 45.209C195.967 45.017 195.661 44.762 195.415 44.444L194.038 45.731C194.476 46.241 194.995 46.625 195.595 46.883C196.195 47.141 196.837 47.27 197.521 47.27C198.433 47.27 199.237 47.072 199.933 46.676C200.635 46.28 201.181 45.728 201.571 45.02C201.967 44.306 202.165 43.475 202.165 42.527V38.396C202.165 37.508 201.967 36.716 201.571 36.02C201.181 35.324 200.647 34.778 199.969 34.382C199.297 33.98 198.544 33.779 197.71 33.779ZM197.71 35.588C198.178 35.588 198.604 35.705 198.988 35.939C199.372 36.167 199.678 36.473 199.906 36.857C200.134 37.241 200.248 37.664 200.248 38.126C200.248 38.594 200.131 39.02 199.897 39.404C199.669 39.788 199.363 40.094 198.979 40.322C198.595 40.55 198.169 40.664 197.701 40.664C197.233 40.664 196.807 40.55 196.423 40.322C196.039 40.094 195.733 39.788 195.505 39.404C195.283 39.02 195.172 38.594 195.172 38.126C195.172 37.658 195.286 37.232 195.514 36.848C195.742 36.464 196.048 36.158 196.432 35.93C196.816 35.702 197.242 35.588 197.71 35.588ZM205.398 45.74H207.387V43.751H205.398V45.74ZM205.407 40.529H207.396V38.54H205.407V40.529ZM215.102 47.27C215.984 47.27 216.764 47.078 217.442 46.694C218.12 46.304 218.651 45.77 219.035 45.092C219.425 44.408 219.62 43.628 219.62 42.752V38.288C219.62 37.406 219.425 36.626 219.035 35.948C218.651 35.27 218.12 34.739 217.442 34.355C216.764 33.965 215.984 33.77 215.102 33.77C214.226 33.77 213.446 33.965 212.762 34.355C212.084 34.739 211.55 35.27 211.16 35.948C210.776 36.626 210.584 37.406 210.584 38.288V42.752C210.584 43.628 210.776 44.408 211.16 45.092C211.55 45.77 212.084 46.304 212.762 46.694C213.446 47.078 214.226 47.27 215.102 47.27ZM215.102 45.47C214.622 45.47 214.184 45.356 213.788 45.128C213.392 44.894 213.077 44.579 212.843 44.183C212.615 43.787 212.501 43.349 212.501 42.869V38.153C212.501 37.673 212.615 37.238 212.843 36.848C213.077 36.452 213.392 36.14 213.788 35.912C214.184 35.678 214.622 35.561 215.102 35.561C215.588 35.561 216.026 35.678 216.416 35.912C216.812 36.14 217.124 36.452 217.352 36.848C217.586 37.238 217.703 37.673 217.703 38.153V42.869C217.703 43.349 217.586 43.787 217.352 44.183C217.124 44.579 216.812 44.894 216.416 45.128C216.026 45.356 215.588 45.47 215.102 45.47ZM226.651 47.27C227.533 47.27 228.313 47.078 228.991 46.694C229.669 46.304 230.2 45.77 230.584 45.092C230.974 44.408 231.169 43.628 231.169 42.752V38.288C231.169 37.406 230.974 36.626 230.584 35.948C230.2 35.27 229.669 34.739 228.991 34.355C228.313 33.965 227.533 33.77 226.651 33.77C225.775 33.77 224.995 33.965 224.311 34.355C223.633 34.739 223.099 35.27 222.709 35.948C222.325 36.626 222.133 37.406 222.133 38.288V42.752C222.133 43.628 222.325 44.408 222.709 45.092C223.099 45.77 223.633 46.304 224.311 46.694C224.995 47.078 225.775 47.27 226.651 47.27ZM226.651 45.47C226.171 45.47 225.733 45.356 225.337 45.128C224.941 44.894 224.626 44.579 224.392 44.183C224.164 43.787 224.05 43.349 224.05 42.869V38.153C224.05 37.673 224.164 37.238 224.392 36.848C224.626 36.452 224.941 36.14 225.337 35.912C225.733 35.678 226.171 35.561 226.651 35.561C227.137 35.561 227.575 35.678 227.965 35.912C228.361 36.14 228.673 36.452 228.901 36.848C229.135 37.238 229.252 37.673 229.252 38.153V42.869C229.252 43.349 229.135 43.787 228.901 44.183C228.673 44.579 228.361 44.894 227.965 45.128C227.575 45.356 227.137 45.47 226.651 45.47ZM236.385 47H238.338L239.283 44.075H244.602L245.565 47H247.518L243.306 34.04H240.597L236.385 47ZM239.859 42.311L241.929 35.921L244.026 42.311H239.859ZM249.133 47H250.906V38.126L255.1 47H255.955L260.14 38.126V46.991H261.922V34.04H260.203L255.532 43.787L250.834 34.04H249.133V47ZM273.609 47V45.407C272.973 45.503 272.418 45.524 271.944 45.47C271.476 45.41 271.134 45.197 270.918 44.831C270.804 44.633 270.741 44.39 270.729 44.102C270.723 43.814 270.72 43.475 270.72 43.085V38.792H273.609V37.28H270.72V34.58H268.83V37.28H266.967V38.792H268.83V43.175C268.83 43.703 268.836 44.177 268.848 44.597C268.866 45.011 268.98 45.419 269.19 45.821C269.43 46.271 269.781 46.601 270.243 46.811C270.705 47.021 271.23 47.135 271.818 47.153C272.406 47.171 273.003 47.12 273.609 47ZM279.422 47.27C280.388 47.27 281.228 47.054 281.942 46.622C282.656 46.184 283.208 45.581 283.598 44.813C283.994 44.039 284.192 43.145 284.192 42.131C284.192 41.129 283.997 40.244 283.607 39.476C283.217 38.702 282.665 38.099 281.951 37.667C281.237 37.229 280.394 37.01 279.422 37.01C278.468 37.01 277.634 37.226 276.92 37.658C276.206 38.09 275.651 38.69 275.255 39.458C274.859 40.226 274.661 41.117 274.661 42.131C274.661 43.133 274.856 44.021 275.246 44.795C275.636 45.569 276.185 46.175 276.893 46.613C277.607 47.051 278.45 47.27 279.422 47.27ZM279.422 45.497C278.516 45.497 277.829 45.194 277.361 44.588C276.893 43.976 276.659 43.157 276.659 42.131C276.659 41.141 276.884 40.337 277.334 39.719C277.784 39.095 278.48 38.783 279.422 38.783C280.34 38.783 281.03 39.086 281.492 39.692C281.96 40.298 282.194 41.111 282.194 42.131C282.194 43.127 281.963 43.937 281.501 44.561C281.045 45.185 280.352 45.497 279.422 45.497ZM295.636 47H297.553V34.04H295.636L293.197 35.498V37.595L295.636 36.11V47ZM305.489 47.27C306.371 47.27 307.151 47.078 307.829 46.694C308.507 46.304 309.038 45.77 309.422 45.092C309.812 44.408 310.007 43.628 310.007 42.752V38.288C310.007 37.406 309.812 36.626 309.422 35.948C309.038 35.27 308.507 34.739 307.829 34.355C307.151 33.965 306.371 33.77 305.489 33.77C304.613 33.77 303.833 33.965 303.149 34.355C302.471 34.739 301.937 35.27 301.547 35.948C301.163 36.626 300.971 37.406 300.971 38.288V42.752C300.971 43.628 301.163 44.408 301.547 45.092C301.937 45.77 302.471 46.304 303.149 46.694C303.833 47.078 304.613 47.27 305.489 47.27ZM305.489 45.47C305.009 45.47 304.571 45.356 304.175 45.128C303.779 44.894 303.464 44.579 303.23 44.183C303.002 43.787 302.888 43.349 302.888 42.869V38.153C302.888 37.673 303.002 37.238 303.23 36.848C303.464 36.452 303.779 36.14 304.175 35.912C304.571 35.678 305.009 35.561 305.489 35.561C305.975 35.561 306.413 35.678 306.803 35.912C307.199 36.14 307.511 36.452 307.739 36.848C307.973 37.238 308.09 37.673 308.09 38.153V42.869C308.09 43.349 307.973 43.787 307.739 44.183C307.511 44.579 307.199 44.894 306.803 45.128C306.413 45.356 305.975 45.47 305.489 45.47ZM313.24 45.74H315.229V43.751H313.24V45.74ZM313.249 40.529H315.238V38.54H313.249V40.529ZM322.944 47.27C323.826 47.27 324.606 47.078 325.284 46.694C325.962 46.304 326.493 45.77 326.877 45.092C327.267 44.408 327.462 43.628 327.462 42.752V38.288C327.462 37.406 327.267 36.626 326.877 35.948C326.493 35.27 325.962 34.739 325.284 34.355C324.606 33.965 323.826 33.77 322.944 33.77C322.068 33.77 321.288 33.965 320.604 34.355C319.926 34.739 319.392 35.27 319.002 35.948C318.618 36.626 318.426 37.406 318.426 38.288V42.752C318.426 43.628 318.618 44.408 319.002 45.092C319.392 45.77 319.926 46.304 320.604 46.694C321.288 47.078 322.068 47.27 322.944 47.27ZM322.944 45.47C322.464 45.47 322.026 45.356 321.63 45.128C321.234 44.894 320.919 44.579 320.685 44.183C320.457 43.787 320.343 43.349 320.343 42.869V38.153C320.343 37.673 320.457 37.238 320.685 36.848C320.919 36.452 321.234 36.14 321.63 35.912C322.026 35.678 322.464 35.561 322.944 35.561C323.43 35.561 323.868 35.678 324.258 35.912C324.654 36.14 324.966 36.452 325.194 36.848C325.428 37.238 325.545 37.673 325.545 38.153V42.869C325.545 43.349 325.428 43.787 325.194 44.183C324.966 44.579 324.654 44.894 324.258 45.128C323.868 45.356 323.43 45.47 322.944 45.47ZM334.493 47.27C335.375 47.27 336.155 47.078 336.833 46.694C337.511 46.304 338.042 45.77 338.426 45.092C338.816 44.408 339.011 43.628 339.011 42.752V38.288C339.011 37.406 338.816 36.626 338.426 35.948C338.042 35.27 337.511 34.739 336.833 34.355C336.155 33.965 335.375 33.77 334.493 33.77C333.617 33.77 332.837 33.965 332.153 34.355C331.475 34.739 330.941 35.27 330.551 35.948C330.167 36.626 329.975 37.406 329.975 38.288V42.752C329.975 43.628 330.167 44.408 330.551 45.092C330.941 45.77 331.475 46.304 332.153 46.694C332.837 47.078 333.617 47.27 334.493 47.27ZM334.493 45.47C334.013 45.47 333.575 45.356 333.179 45.128C332.783 44.894 332.468 44.579 332.234 44.183C332.006 43.787 331.892 43.349 331.892 42.869V38.153C331.892 37.673 332.006 37.238 332.234 36.848C332.468 36.452 332.783 36.14 333.179 35.912C333.575 35.678 334.013 35.561 334.493 35.561C334.979 35.561 335.417 35.678 335.807 35.912C336.203 36.14 336.515 36.452 336.743 36.848C336.977 37.238 337.094 37.673 337.094 38.153V42.869C337.094 43.349 336.977 43.787 336.743 44.183C336.515 44.579 336.203 44.894 335.807 45.128C335.417 45.356 334.979 45.47 334.493 45.47ZM347.831 47H349.784L350.729 44.075H356.048L357.011 47H358.964L354.752 34.04H352.043L347.831 47ZM351.305 42.311L353.375 35.921L355.472 42.311H351.305ZM360.578 47H362.351V38.126L366.545 47H367.4L371.585 38.126V46.991H373.367V34.04H371.648L366.977 43.787L362.279 34.04H360.578V47Z" fill="#1E1B1B"/>
<path d="M47.5604 18H48.9844L51.5764 8.968L54.1684 18H55.5924L58.9284 6.48H57.4324L54.8804 15.592L52.3204 6.48L50.8244 6.488L48.2724 15.592L45.7124 6.48H44.2244L47.5604 18ZM63.0828 18.24C63.9201 18.24 64.6748 18.032 65.3468 17.616C66.0188 17.1947 66.5254 16.6027 66.8668 15.84L65.4988 15.368C65.0028 16.3813 64.1761 16.888 63.0188 16.888C62.2241 16.888 61.6001 16.6453 61.1468 16.16C60.6988 15.6693 60.4454 14.976 60.3868 14.08H67.0108C67.0534 13.056 66.9201 12.1733 66.6108 11.432C66.3068 10.6907 65.8481 10.12 65.2348 9.72C64.6268 9.32 63.8881 9.12 63.0188 9.12C62.1814 9.12 61.4508 9.30933 60.8268 9.688C60.2028 10.0613 59.7174 10.5947 59.3708 11.288C59.0294 11.976 58.8588 12.792 58.8588 13.736C58.8588 14.6373 59.0321 15.4267 59.3788 16.104C59.7308 16.776 60.2241 17.3013 60.8588 17.68C61.4934 18.0533 62.2348 18.24 63.0828 18.24ZM63.0668 10.4C64.5334 10.4 65.3548 11.2453 65.5308 12.936H60.4108C60.5121 12.1147 60.7868 11.488 61.2348 11.056C61.6828 10.6187 62.2934 10.4 63.0668 10.4ZM74.451 18.24C75.891 18.24 76.9577 17.712 77.651 16.656V18H78.915V12.656C78.915 12.3147 78.899 11.9893 78.867 11.68C78.835 11.3653 78.7577 11.0747 78.635 10.808C78.3897 10.2427 77.9843 9.82133 77.419 9.544C76.8537 9.26133 76.1817 9.12 75.403 9.12C74.427 9.12 73.6377 9.336 73.035 9.768C72.4377 10.2 72.0377 10.7947 71.835 11.552L73.187 11.96C73.3417 11.432 73.6163 11.048 74.011 10.808C74.4057 10.568 74.8643 10.448 75.387 10.448C76.1337 10.448 76.6697 10.616 76.995 10.952C77.3257 11.2827 77.499 11.792 77.515 12.48C76.875 12.5707 76.203 12.6667 75.499 12.768C74.8003 12.864 74.179 12.984 73.635 13.128C72.979 13.32 72.4617 13.6213 72.083 14.032C71.7043 14.4373 71.515 14.9813 71.515 15.664C71.515 16.128 71.6243 16.5547 71.843 16.944C72.067 17.3333 72.395 17.648 72.827 17.888C73.2643 18.1227 73.8057 18.24 74.451 18.24ZM74.667 17.048C74.0537 17.048 73.611 16.9067 73.339 16.624C73.067 16.336 72.931 16.0133 72.931 15.656C72.931 15.2507 73.0643 14.9413 73.331 14.728C73.603 14.5093 73.9177 14.344 74.275 14.232C74.6963 14.1147 75.187 14.016 75.747 13.936C76.307 13.856 76.891 13.776 77.499 13.696C77.499 13.8933 77.4883 14.1173 77.467 14.368C77.451 14.6187 77.4137 14.848 77.355 15.056C77.2537 15.5893 76.971 16.056 76.507 16.456C76.0483 16.8507 75.435 17.048 74.667 17.048ZM80.995 18H82.427V13.664C82.427 13.152 82.4963 12.6587 82.635 12.184C82.7737 11.7093 83.0537 11.3227 83.475 11.024C83.7737 10.8053 84.1017 10.6773 84.459 10.64C84.8217 10.6027 85.1523 10.6213 85.451 10.696V9.36C85.067 9.27467 84.6457 9.27467 84.187 9.36C83.7283 9.44533 83.3337 9.62133 83.003 9.888C82.715 10.0907 82.4697 10.3707 82.267 10.728V9.36H80.995V18ZM90.5515 18.24C91.3888 18.24 92.1435 18.032 92.8155 17.616C93.4875 17.1947 93.9942 16.6027 94.3355 15.84L92.9675 15.368C92.4715 16.3813 91.6448 16.888 90.4875 16.888C89.6928 16.888 89.0688 16.6453 88.6155 16.16C88.1675 15.6693 87.9142 14.976 87.8555 14.08H94.4795C94.5222 13.056 94.3888 12.1733 94.0795 11.432C93.7755 10.6907 93.3168 10.12 92.7035 9.72C92.0955 9.32 91.3568 9.12 90.4875 9.12C89.6502 9.12 88.9195 9.30933 88.2955 9.688C87.6715 10.0613 87.1862 10.5947 86.8395 11.288C86.4982 11.976 86.3275 12.792 86.3275 13.736C86.3275 14.6373 86.5008 15.4267 86.8475 16.104C87.1995 16.776 87.6928 17.3013 88.3275 17.68C88.9622 18.0533 89.7035 18.24 90.5515 18.24ZM90.5355 10.4C92.0022 10.4 92.8235 11.2453 92.9995 12.936H87.8795C87.9808 12.1147 88.2555 11.488 88.7035 11.056C89.1515 10.6187 89.7622 10.4 90.5355 10.4ZM103.144 18.24C104.002 18.24 104.741 18.048 105.36 17.664C105.984 17.28 106.464 16.744 106.8 16.056C107.141 15.368 107.312 14.5733 107.312 13.672C107.312 12.7813 107.144 11.9947 106.808 11.312C106.477 10.624 106 10.088 105.376 9.704C104.752 9.31467 104.008 9.12 103.144 9.12C102.301 9.12 101.568 9.312 100.944 9.696C100.32 10.0747 99.8371 10.6053 99.4958 11.288C99.1544 11.9707 98.9838 12.7653 98.9838 13.672C98.9838 14.5627 99.1491 15.352 99.4798 16.04C99.8158 16.728 100.296 17.2667 100.92 17.656C101.544 18.0453 102.285 18.24 103.144 18.24ZM103.144 16.888C102.274 16.888 101.616 16.5973 101.168 16.016C100.72 15.4293 100.496 14.648 100.496 13.672C100.496 12.728 100.712 11.96 101.144 11.368C101.576 10.7707 102.242 10.472 103.144 10.472C104.029 10.472 104.693 10.7627 105.136 11.344C105.578 11.9253 105.8 12.7013 105.8 13.672C105.8 14.6213 105.578 15.3947 105.136 15.992C104.698 16.5893 104.034 16.888 103.144 16.888ZM109.065 21.84H110.497V17.2C110.806 17.5253 111.172 17.7813 111.593 17.968C112.02 18.1493 112.502 18.24 113.041 18.24C113.846 18.24 114.537 18.04 115.113 17.64C115.694 17.2347 116.14 16.688 116.449 16C116.758 15.312 116.913 14.536 116.913 13.672C116.913 12.808 116.758 12.032 116.449 11.344C116.14 10.656 115.694 10.1147 115.113 9.72C114.537 9.32 113.849 9.12 113.049 9.12C112.462 9.12 111.942 9.22667 111.489 9.44C111.036 9.65333 110.652 9.94933 110.337 10.328V9.36H109.065V21.84ZM112.865 16.936C111.996 16.936 111.356 16.6293 110.945 16.016C110.54 15.4027 110.337 14.6213 110.337 13.672C110.337 12.7173 110.54 11.9387 110.945 11.336C111.356 10.728 111.982 10.424 112.825 10.424C113.412 10.424 113.894 10.568 114.273 10.856C114.657 11.144 114.94 11.5333 115.121 12.024C115.308 12.5147 115.401 13.064 115.401 13.672C115.401 14.2853 115.308 14.84 115.121 15.336C114.934 15.8267 114.654 16.216 114.281 16.504C113.908 16.792 113.436 16.936 112.865 16.936ZM122.411 18.24C123.248 18.24 124.003 18.032 124.675 17.616C125.347 17.1947 125.854 16.6027 126.195 15.84L124.827 15.368C124.331 16.3813 123.504 16.888 122.347 16.888C121.552 16.888 120.928 16.6453 120.475 16.16C120.027 15.6693 119.774 14.976 119.715 14.08H126.339C126.382 13.056 126.248 12.1733 125.939 11.432C125.635 10.6907 125.176 10.12 124.563 9.72C123.955 9.32 123.216 9.12 122.347 9.12C121.51 9.12 120.779 9.30933 120.155 9.688C119.531 10.0613 119.046 10.5947 118.699 11.288C118.358 11.976 118.187 12.792 118.187 13.736C118.187 14.6373 118.36 15.4267 118.707 16.104C119.059 16.776 119.552 17.3013 120.187 17.68C120.822 18.0533 121.563 18.24 122.411 18.24ZM122.395 10.4C123.862 10.4 124.683 11.2453 124.859 12.936H119.739C119.84 12.1147 120.115 11.488 120.563 11.056C121.011 10.6187 121.622 10.4 122.395 10.4ZM127.878 18H129.318V13.448C129.318 12.4453 129.534 11.7013 129.966 11.216C130.403 10.7307 130.979 10.488 131.694 10.488C132.302 10.488 132.776 10.64 133.118 10.944C133.459 11.248 133.696 11.6427 133.83 12.128C133.968 12.6133 134.038 13.128 134.038 13.672V18H135.478V13.224C135.478 12.8133 135.427 12.3733 135.326 11.904C135.23 11.4293 135.054 10.984 134.798 10.568C134.547 10.1467 134.198 9.80267 133.75 9.536C133.307 9.26933 132.736 9.136 132.038 9.136C130.779 9.136 129.819 9.58133 129.158 10.472V9.36H127.878V18Z" fill="#939191"/>
<path d="M26.4068 16.5459C23.4852 13.6241 19.6005 12.0151 15.4688 12.0151C11.337 12.0151 7.45227 13.6241 4.53073 16.5459C1.609 19.4674 0 23.3522 0 27.4839C0 31.6156 1.609 35.5004 4.53073 38.4219C7.45227 41.3436 11.337 42.9526 15.4688 42.9526C19.6005 42.9526 23.4852 41.3436 26.4068 38.4219C29.3285 35.5004 30.9375 31.6156 30.9375 27.4839C30.9375 23.3522 29.3285 19.4674 26.4068 16.5459ZM15.4688 40.5356C8.27216 40.5356 2.41699 34.6805 2.41699 27.4839C2.41699 20.2873 8.27216 14.4321 15.4688 14.4321C22.6653 14.4321 28.5205 20.2873 28.5205 27.4839C28.5205 34.6805 22.6653 40.5356 15.4688 40.5356ZM17.7853 28.1741L22.1823 32.5486L20.4776 34.2624L16.0279 29.835C15.8483 29.8778 15.6614 29.9009 15.4688 29.9009C14.1339 29.9009 13.0518 28.8187 13.0518 27.4839C13.0518 26.6145 13.511 25.8526 14.1998 25.4268V16.9095H15.4083H16.6168V25.3566C17.3723 25.7654 17.8857 26.5645 17.8857 27.4839C17.8857 27.7237 17.8502 27.9552 17.7853 28.1741Z" fill="#E2E6E9"/>
</svg>
