<svg width="108" height="24" viewBox="0 0 108 24" fill="none" xmlns="http://www.w3.org/2000/svg">
<g filter="url(#filter0_b_705_73)">
<path d="M0 12C0 5.37258 5.37258 0 12 0C18.6274 0 24 5.37258 24 12C24 18.6274 18.6274 24 12 24C5.37258 24 0 18.6274 0 12Z" fill="#1E1B1B"/>
</g>
<path d="M8.99268 13.7144V10.18C8.99268 8.67335 8.99268 7.92001 9.48339 7.62962C9.97411 7.33922 10.6345 7.70177 11.9552 8.42688L14.9846 10.0901C16.3231 10.8249 16.9924 11.1924 17.0071 11.7668C17.0218 12.3412 16.3722 12.7424 15.0731 13.5448L12.0437 15.416C10.6936 16.2499 10.0185 16.6668 9.50559 16.3807C8.99268 16.0947 8.99268 15.3012 8.99268 13.7144Z" fill="white"/>
<path d="M35.3047 13.2734V17.5H33.3281V6.125L37.6797 6.125C38.9505 6.125 39.9583 6.45573 40.7031 7.11719C41.4531 7.77865 41.8281 8.65365 41.8281 9.74219C41.8281 10.8568 41.4609 11.724 40.7266 12.3438C39.9974 12.9635 38.974 13.2734 37.6562 13.2734L35.3047 13.2734ZM35.3047 11.6875L37.6797 11.6875C38.3828 11.6875 38.9193 11.5234 39.2891 11.1953C39.6589 10.862 39.8438 10.3828 39.8438 9.75781C39.8438 9.14323 39.6562 8.65365 39.2812 8.28906C38.9062 7.91927 38.3906 7.72917 37.7344 7.71875H35.3047V11.6875ZM45.3984 17.5H43.5V5.5H45.3984V17.5ZM52.5234 17.5C52.4401 17.3385 52.3672 17.0755 52.3047 16.7109C51.7005 17.3411 50.9609 17.6563 50.0859 17.6563C49.237 17.6563 48.5443 17.4141 48.0078 16.9297C47.4714 16.4453 47.2031 15.8464 47.2031 15.1328C47.2031 14.2318 47.5365 13.5417 48.2031 13.0625C48.875 12.5781 49.8333 12.3359 51.0781 12.3359H52.2422V11.7813C52.2422 11.3438 52.1198 10.9948 51.875 10.7344C51.6302 10.4688 51.2578 10.3359 50.7578 10.3359C50.3255 10.3359 49.9714 10.4453 49.6953 10.6641C49.4193 10.8776 49.2812 11.151 49.2812 11.4844L47.3828 11.4844C47.3828 11.0208 47.5365 10.5885 47.8438 10.1875C48.151 9.78125 48.5677 9.46354 49.0938 9.23438C49.625 9.00521 50.2161 8.89063 50.8672 8.89063C51.8568 8.89063 52.6458 9.14063 53.2344 9.64063C53.8229 10.1354 54.125 10.8333 54.1406 11.7344V15.5469C54.1406 16.3073 54.2474 16.9141 54.4609 17.3672V17.5H52.5234ZM50.4375 16.1328C50.8125 16.1328 51.1641 16.0417 51.4922 15.8594C51.8255 15.6771 52.0755 15.4323 52.2422 15.125V13.5313H51.2188C50.5156 13.5313 49.987 13.6536 49.6328 13.8984C49.2786 14.1432 49.1016 14.4896 49.1016 14.9375C49.1016 15.3021 49.2214 15.5938 49.4609 15.8125C49.7057 16.026 50.0312 16.1328 50.4375 16.1328ZM58.9609 14.7813L60.6797 9.04688L62.7031 9.04688L59.3438 18.7813C58.8281 20.2031 57.9531 20.9141 56.7188 20.9141C56.4427 20.9141 56.138 20.8672 55.8047 20.7734V19.3047L56.1641 19.3281C56.6432 19.3281 57.0026 19.2396 57.2422 19.0625C57.487 18.8906 57.6797 18.599 57.8203 18.1875L58.0938 17.4609L55.125 9.04688H57.1719L58.9609 14.7813ZM71.9766 15.0234L74.8672 6.125H77.0391L72.9453 17.5H71.0312L66.9531 6.125H69.1172L71.9766 15.0234ZM80.1641 17.5H78.2656V9.04688H80.1641V17.5ZM78.1484 6.85156C78.1484 6.5599 78.2396 6.31771 78.4219 6.125C78.6094 5.93229 78.875 5.83594 79.2188 5.83594C79.5625 5.83594 79.8281 5.93229 80.0156 6.125C80.2031 6.31771 80.2969 6.5599 80.2969 6.85156C80.2969 7.13802 80.2031 7.3776 80.0156 7.57031C79.8281 7.75781 79.5625 7.85156 79.2188 7.85156C78.875 7.85156 78.6094 7.75781 78.4219 7.57031C78.2396 7.3776 78.1484 7.13802 78.1484 6.85156ZM81.8828 13.2109C81.8828 11.9089 82.1849 10.8646 82.7891 10.0781C83.3932 9.28646 84.2031 8.89063 85.2188 8.89063C86.1146 8.89063 86.8385 9.20313 87.3906 9.82813V5.5H89.2891V17.5H87.5703L87.4766 16.625C86.9089 17.3125 86.151 17.6563 85.2031 17.6563C84.2135 17.6563 83.4115 17.2578 82.7969 16.4609C82.1875 15.6641 81.8828 14.5807 81.8828 13.2109ZM83.7812 13.375C83.7812 14.2344 83.9453 14.9063 84.2734 15.3906C84.6068 15.8698 85.0781 16.1094 85.6875 16.1094C86.4635 16.1094 87.0312 15.763 87.3906 15.0703V11.4609C87.0417 10.7839 86.4792 10.4453 85.7031 10.4453C85.0885 10.4453 84.6146 10.6901 84.2812 11.1797C83.9479 11.6641 83.7812 12.3958 83.7812 13.375ZM94.9922 17.6563C93.7891 17.6563 92.8125 17.2786 92.0625 16.5234C91.3177 15.763 90.9453 14.7526 90.9453 13.4922V13.2578C90.9453 12.4141 91.1068 11.6615 91.4297 11C91.7578 10.3333 92.2161 9.8151 92.8047 9.44531C93.3932 9.07552 94.0495 8.89063 94.7734 8.89063C95.9245 8.89063 96.8125 9.25781 97.4375 9.99219C98.0677 10.7266 98.3828 11.7656 98.3828 13.1094V13.875H92.8594C92.9167 14.5729 93.1484 15.125 93.5547 15.5313C93.9661 15.9375 94.4818 16.1406 95.1016 16.1406C95.9714 16.1406 96.6797 15.7891 97.2266 15.0859L98.25 16.0625C97.9115 16.5677 97.4583 16.9609 96.8906 17.2422C96.3281 17.5182 95.6953 17.6563 94.9922 17.6563ZM94.7656 10.4141C94.2448 10.4141 93.8229 10.5964 93.5 10.9609C93.1823 11.3255 92.9792 11.8333 92.8906 12.4844H96.5078V12.3438C96.4661 11.7083 96.2969 11.2292 96 10.9063C95.7031 10.5781 95.2917 10.4141 94.7656 10.4141ZM99.5078 13.1953C99.5078 12.3672 99.6719 11.6224 100 10.9609C100.328 10.2943 100.789 9.78385 101.383 9.42969C101.977 9.07031 102.659 8.89063 103.43 8.89063C104.57 8.89063 105.495 9.25781 106.203 9.99219C106.917 10.7266 107.302 11.7005 107.359 12.9141L107.367 13.3594C107.367 14.1927 107.206 14.9375 106.883 15.5938C106.565 16.25 106.107 16.7578 105.508 17.1172C104.914 17.4766 104.227 17.6563 103.445 17.6563C102.253 17.6563 101.297 17.2604 100.578 16.4688C99.8646 15.6719 99.5078 14.612 99.5078 13.2891V13.1953ZM101.406 13.3594C101.406 14.2292 101.586 14.9115 101.945 15.4063C102.305 15.8958 102.805 16.1406 103.445 16.1406C104.086 16.1406 104.583 15.8906 104.938 15.3906C105.297 14.8906 105.477 14.1589 105.477 13.1953C105.477 12.3411 105.292 11.6641 104.922 11.1641C104.557 10.6641 104.06 10.4141 103.43 10.4141C102.81 10.4141 102.318 10.6615 101.953 11.1563C101.589 11.6458 101.406 12.3802 101.406 13.3594Z" fill="#1E1B1B"/>
<defs>
<filter id="filter0_b_705_73" x="-80" y="-80" width="184" height="184" filterUnits="userSpaceOnUse" color-interpolation-filters="sRGB">
<feFlood flood-opacity="0" result="BackgroundImageFix"/>
<feGaussianBlur in="BackgroundImage" stdDeviation="40"/>
<feComposite in2="SourceAlpha" operator="in" result="effect1_backgroundBlur_705_73"/>
<feBlend mode="normal" in="SourceGraphic" in2="effect1_backgroundBlur_705_73" result="shape"/>
</filter>
</defs>
</svg>
