<svg width="244" height="32" viewBox="0 0 244 32" fill="none" xmlns="http://www.w3.org/2000/svg">
<path d="M-2.56 23H5.189V21.227H-0.679V10.04H-2.56V23ZM11.028 23.27C11.97 23.27 12.825 23.033 13.593 22.559C14.361 22.079 14.934 21.404 15.312 20.534L13.467 19.949C12.975 20.981 12.132 21.497 10.938 21.497C10.122 21.497 9.48003 21.251 9.01203 20.759C8.54403 20.267 8.27103 19.571 8.19303 18.671H15.438C15.504 17.507 15.366 16.502 15.024 15.656C14.682 14.81 14.163 14.159 13.467 13.703C12.771 13.241 11.928 13.01 10.938 13.01C9.99003 13.01 9.15903 13.223 8.44503 13.649C7.73103 14.075 7.17303 14.678 6.77103 15.458C6.37503 16.238 6.17703 17.159 6.17703 18.221C6.17703 19.223 6.37803 20.105 6.78003 20.867C7.18803 21.623 7.75503 22.214 8.48103 22.64C9.21303 23.06 10.062 23.27 11.028 23.27ZM11.01 14.675C12.48 14.675 13.314 15.518 13.512 17.204H8.23803C8.35803 16.382 8.64903 15.755 9.11103 15.323C9.57303 14.891 10.206 14.675 11.01 14.675ZM20.0265 23.27C21.5745 23.27 22.7415 22.709 23.5275 21.587V23H25.1925V17.015C25.1925 16.607 25.1745 16.226 25.1385 15.872C25.1025 15.518 25.0065 15.182 24.8505 14.864C24.5505 14.222 24.0765 13.754 23.4285 13.46C22.7865 13.16 22.0305 13.01 21.1605 13.01C20.0385 13.01 19.1385 13.256 18.4605 13.748C17.7825 14.24 17.3265 14.903 17.0925 15.737L18.8475 16.277C19.0155 15.737 19.3125 15.347 19.7385 15.107C20.1645 14.867 20.6325 14.747 21.1425 14.747C21.8985 14.747 22.4445 14.909 22.7805 15.233C23.1225 15.551 23.3085 16.046 23.3385 16.718C22.5465 16.826 21.7725 16.94 21.0165 17.06C20.2605 17.174 19.6005 17.312 19.0365 17.474C18.2865 17.714 17.7165 18.071 17.3265 18.545C16.9365 19.019 16.7415 19.622 16.7415 20.354C16.7415 20.882 16.8645 21.368 17.1105 21.812C17.3625 22.25 17.7315 22.604 18.2175 22.874C18.7095 23.138 19.3125 23.27 20.0265 23.27ZM20.3595 21.731C19.7595 21.731 19.3155 21.593 19.0275 21.317C18.7455 21.041 18.6045 20.714 18.6045 20.336C18.6045 19.952 18.7305 19.649 18.9825 19.427C19.2405 19.205 19.5615 19.028 19.9455 18.896C20.3535 18.776 20.8335 18.671 21.3855 18.581C21.9435 18.491 22.5885 18.392 23.3205 18.284C23.3145 18.512 23.2995 18.767 23.2755 19.049C23.2515 19.331 23.2005 19.583 23.1225 19.805C23.0505 20.123 22.8975 20.429 22.6635 20.723C22.4355 21.017 22.1265 21.26 21.7365 21.452C21.3525 21.638 20.8935 21.731 20.3595 21.731ZM27.5295 23H29.4285V18.095C29.4285 17.525 29.5185 16.997 29.6985 16.511C29.8785 16.025 30.1965 15.635 30.6525 15.341C30.9765 15.131 31.3335 15.008 31.7235 14.972C32.1135 14.936 32.4645 14.96 32.7765 15.044V13.28C32.3385 13.196 31.8735 13.199 31.3815 13.289C30.8955 13.379 30.4695 13.559 30.1035 13.829C29.7435 14.069 29.4435 14.402 29.2035 14.828V13.28H27.5295V23ZM34.4815 23H36.3895V17.942C36.3895 17.174 36.5005 16.562 36.7225 16.106C36.9505 15.644 37.2505 15.311 37.6225 15.107C37.9945 14.903 38.4055 14.801 38.8555 14.801C39.3715 14.801 39.7915 14.906 40.1155 15.116C40.4395 15.326 40.6885 15.602 40.8625 15.944C41.0365 16.286 41.1535 16.658 41.2135 17.06C41.2795 17.456 41.3125 17.843 41.3125 18.221V23H43.2205V17.6C43.2205 17.3 43.1935 16.952 43.1395 16.556C43.0855 16.16 42.9835 15.755 42.8335 15.341C42.6835 14.927 42.4645 14.546 42.1765 14.198C41.8945 13.844 41.5255 13.559 41.0695 13.343C40.6135 13.127 40.0495 13.019 39.3775 13.019C38.6755 13.019 38.0515 13.145 37.5055 13.397C36.9655 13.649 36.5185 13.997 36.1645 14.441V13.28H34.4815V23ZM51.9132 23.27C53.4612 23.27 54.6282 22.709 55.4142 21.587V23H57.0792V17.015C57.0792 16.607 57.0612 16.226 57.0252 15.872C56.9892 15.518 56.8932 15.182 56.7372 14.864C56.4372 14.222 55.9632 13.754 55.3152 13.46C54.6732 13.16 53.9172 13.01 53.0472 13.01C51.9252 13.01 51.0252 13.256 50.3472 13.748C49.6692 14.24 49.2132 14.903 48.9792 15.737L50.7342 16.277C50.9022 15.737 51.1992 15.347 51.6252 15.107C52.0512 14.867 52.5192 14.747 53.0292 14.747C53.7852 14.747 54.3312 14.909 54.6672 15.233C55.0092 15.551 55.1952 16.046 55.2252 16.718C54.4332 16.826 53.6592 16.94 52.9032 17.06C52.1472 17.174 51.4872 17.312 50.9232 17.474C50.1732 17.714 49.6032 18.071 49.2132 18.545C48.8232 19.019 48.6282 19.622 48.6282 20.354C48.6282 20.882 48.7512 21.368 48.9972 21.812C49.2492 22.25 49.6182 22.604 50.1042 22.874C50.5962 23.138 51.1992 23.27 51.9132 23.27ZM52.2462 21.731C51.6462 21.731 51.2022 21.593 50.9142 21.317C50.6322 21.041 50.4912 20.714 50.4912 20.336C50.4912 19.952 50.6172 19.649 50.8692 19.427C51.1272 19.205 51.4482 19.028 51.8322 18.896C52.2402 18.776 52.7202 18.671 53.2722 18.581C53.8302 18.491 54.4752 18.392 55.2072 18.284C55.2012 18.512 55.1862 18.767 55.1622 19.049C55.1382 19.331 55.0872 19.583 55.0092 19.805C54.9372 20.123 54.7842 20.429 54.5502 20.723C54.3222 21.017 54.0132 21.26 53.6232 21.452C53.2392 21.638 52.7802 21.731 52.2462 21.731ZM59.4073 23H61.0813V22.109C61.4353 22.475 61.8523 22.76 62.3323 22.964C62.8183 23.168 63.3673 23.27 63.9793 23.27C64.8853 23.27 65.6653 23.045 66.3193 22.595C66.9793 22.139 67.4863 21.524 67.8403 20.75C68.2003 19.976 68.3803 19.103 68.3803 18.131C68.3803 17.153 68.2003 16.28 67.8403 15.512C67.4803 14.738 66.9673 14.129 66.3013 13.685C65.6413 13.235 64.8553 13.01 63.9433 13.01C63.4033 13.01 62.9113 13.091 62.4673 13.253C62.0233 13.415 61.6333 13.646 61.2973 13.946V10.04H59.4073V23ZM63.7183 21.569C62.7943 21.569 62.1223 21.248 61.7023 20.606C61.2883 19.964 61.0813 19.139 61.0813 18.131C61.0813 17.123 61.2883 16.301 61.7023 15.665C62.1163 15.029 62.7673 14.711 63.6553 14.711C64.2793 14.711 64.7923 14.864 65.1943 15.17C65.5963 15.476 65.8933 15.887 66.0853 16.403C66.2833 16.919 66.3823 17.495 66.3823 18.131C66.3823 18.773 66.2863 19.355 66.0943 19.877C65.9023 20.393 65.6083 20.804 65.2123 21.11C64.8223 21.416 64.3243 21.569 63.7183 21.569ZM74.5884 23.27C75.5544 23.27 76.3944 23.054 77.1084 22.622C77.8224 22.184 78.3744 21.581 78.7644 20.813C79.1604 20.039 79.3584 19.145 79.3584 18.131C79.3584 17.129 79.1634 16.244 78.7734 15.476C78.3834 14.702 77.8314 14.099 77.1174 13.667C76.4034 13.229 75.5604 13.01 74.5884 13.01C73.6344 13.01 72.8004 13.226 72.0864 13.658C71.3724 14.09 70.8174 14.69 70.4214 15.458C70.0254 16.226 69.8274 17.117 69.8274 18.131C69.8274 19.133 70.0224 20.021 70.4124 20.795C70.8024 21.569 71.3514 22.175 72.0594 22.613C72.7734 23.051 73.6164 23.27 74.5884 23.27ZM74.5884 21.497C73.6824 21.497 72.9954 21.194 72.5274 20.588C72.0594 19.976 71.8254 19.157 71.8254 18.131C71.8254 17.141 72.0504 16.337 72.5004 15.719C72.9504 15.095 73.6464 14.783 74.5884 14.783C75.5064 14.783 76.1964 15.086 76.6584 15.692C77.1264 16.298 77.3604 17.111 77.3604 18.131C77.3604 19.127 77.1294 19.937 76.6674 20.561C76.2114 21.185 75.5184 21.497 74.5884 21.497ZM84.9992 23.261C85.7012 23.261 86.3222 23.135 86.8622 22.883C87.4082 22.631 87.8582 22.283 88.2122 21.839V23H89.8862V13.28H87.9872V18.338C87.9872 19.106 87.8762 19.721 87.6542 20.183C87.4322 20.639 87.1322 20.969 86.7542 21.173C86.3822 21.377 85.9712 21.479 85.5212 21.479C85.0052 21.479 84.5852 21.374 84.2612 21.164C83.9372 20.954 83.6882 20.678 83.5142 20.336C83.3402 19.994 83.2202 19.625 83.1542 19.229C83.0942 18.827 83.0642 18.437 83.0642 18.059V13.28H81.1562V18.68C81.1562 18.98 81.1832 19.328 81.2372 19.724C81.2912 20.12 81.3932 20.525 81.5432 20.939C81.6932 21.353 81.9092 21.737 82.1912 22.091C82.4792 22.439 82.8512 22.721 83.3072 22.937C83.7632 23.153 84.3272 23.261 84.9992 23.261ZM97.9724 23V21.407C97.3364 21.503 96.7814 21.524 96.3074 21.47C95.8394 21.41 95.4974 21.197 95.2814 20.831C95.1674 20.633 95.1044 20.39 95.0924 20.102C95.0864 19.814 95.0834 19.475 95.0834 19.085V14.792H97.9724V13.28H95.0834V10.58H93.1934V13.28H91.3304V14.792H93.1934V19.175C93.1934 19.703 93.1994 20.177 93.2114 20.597C93.2294 21.011 93.3434 21.419 93.5534 21.821C93.7934 22.271 94.1444 22.601 94.6064 22.811C95.0684 23.021 95.5934 23.135 96.1814 23.153C96.7694 23.171 97.3664 23.12 97.9724 23ZM107.342 23.261C108.572 23.261 109.535 22.988 110.231 22.442C110.933 21.896 111.284 21.143 111.284 20.183C111.284 19.679 111.179 19.253 110.969 18.905C110.765 18.557 110.423 18.257 109.943 18.005C109.463 17.747 108.815 17.513 107.999 17.303C107.237 17.111 106.661 16.946 106.271 16.808C105.887 16.664 105.626 16.52 105.488 16.376C105.35 16.226 105.281 16.043 105.281 15.827C105.281 15.455 105.458 15.164 105.812 14.954C106.166 14.738 106.628 14.642 107.198 14.666C107.792 14.69 108.275 14.84 108.647 15.116C109.019 15.386 109.238 15.752 109.304 16.214L111.23 15.863C111.122 14.999 110.699 14.309 109.961 13.793C109.223 13.271 108.296 13.01 107.18 13.01C106.04 13.01 105.125 13.277 104.435 13.811C103.745 14.339 103.4 15.044 103.4 15.926C103.4 16.4 103.502 16.805 103.706 17.141C103.916 17.471 104.264 17.759 104.75 18.005C105.242 18.251 105.905 18.485 106.739 18.707C107.501 18.911 108.068 19.082 108.44 19.22C108.812 19.358 109.055 19.505 109.169 19.661C109.289 19.811 109.349 20.009 109.349 20.255C109.349 20.675 109.181 21.005 108.845 21.245C108.515 21.485 108.056 21.605 107.468 21.605C106.82 21.605 106.277 21.461 105.839 21.173C105.407 20.885 105.131 20.486 105.011 19.976L103.085 20.273C103.253 21.221 103.709 21.956 104.453 22.478C105.197 23 106.16 23.261 107.342 23.261ZM117.587 23.27C118.529 23.27 119.384 23.033 120.152 22.559C120.92 22.079 121.493 21.404 121.871 20.534L120.026 19.949C119.534 20.981 118.691 21.497 117.497 21.497C116.681 21.497 116.039 21.251 115.571 20.759C115.103 20.267 114.83 19.571 114.752 18.671H121.997C122.063 17.507 121.925 16.502 121.583 15.656C121.241 14.81 120.722 14.159 120.026 13.703C119.33 13.241 118.487 13.01 117.497 13.01C116.549 13.01 115.718 13.223 115.004 13.649C114.29 14.075 113.732 14.678 113.33 15.458C112.934 16.238 112.736 17.159 112.736 18.221C112.736 19.223 112.937 20.105 113.339 20.867C113.747 21.623 114.314 22.214 115.04 22.64C115.772 23.06 116.621 23.27 117.587 23.27ZM117.569 14.675C119.039 14.675 119.873 15.518 120.071 17.204H114.797C114.917 16.382 115.208 15.755 115.67 15.323C116.132 14.891 116.765 14.675 117.569 14.675ZM124.016 23H125.915V18.095C125.915 17.525 126.005 16.997 126.185 16.511C126.365 16.025 126.683 15.635 127.139 15.341C127.463 15.131 127.82 15.008 128.21 14.972C128.6 14.936 128.951 14.96 129.263 15.044V13.28C128.825 13.196 128.36 13.199 127.868 13.289C127.382 13.379 126.956 13.559 126.59 13.829C126.23 14.069 125.93 14.402 125.69 14.828V13.28H124.016V23ZM133.605 23H135.513L139.041 13.28H137.142L134.559 20.642L131.976 13.28H130.077L133.605 23ZM140.842 11.687H142.723V9.86H140.842V11.687ZM140.842 23H142.723V13.28H140.842V23ZM149.584 23.27C150.628 23.27 151.516 23.018 152.248 22.514C152.98 22.01 153.505 21.281 153.823 20.327L151.915 19.877C151.717 20.399 151.429 20.801 151.051 21.083C150.679 21.359 150.19 21.497 149.584 21.497C148.696 21.497 148.024 21.188 147.568 20.57C147.118 19.952 146.89 19.142 146.884 18.14C146.89 17.168 147.109 16.367 147.541 15.737C147.979 15.101 148.66 14.783 149.584 14.783C150.13 14.783 150.613 14.936 151.033 15.242C151.459 15.542 151.765 15.965 151.951 16.511L153.823 15.971C153.583 15.059 153.085 14.339 152.329 13.811C151.579 13.277 150.673 13.01 149.611 13.01C148.633 13.01 147.79 13.229 147.082 13.667C146.38 14.105 145.84 14.711 145.462 15.485C145.084 16.253 144.892 17.138 144.886 18.14C144.892 19.124 145.078 20.003 145.444 20.777C145.816 21.551 146.35 22.16 147.046 22.604C147.748 23.048 148.594 23.27 149.584 23.27ZM159.704 23.27C160.646 23.27 161.501 23.033 162.269 22.559C163.037 22.079 163.61 21.404 163.988 20.534L162.143 19.949C161.651 20.981 160.808 21.497 159.614 21.497C158.798 21.497 158.156 21.251 157.688 20.759C157.22 20.267 156.947 19.571 156.869 18.671H164.114C164.18 17.507 164.042 16.502 163.7 15.656C163.358 14.81 162.839 14.159 162.143 13.703C161.447 13.241 160.604 13.01 159.614 13.01C158.666 13.01 157.835 13.223 157.121 13.649C156.407 14.075 155.849 14.678 155.447 15.458C155.051 16.238 154.853 17.159 154.853 18.221C154.853 19.223 155.054 20.105 155.456 20.867C155.864 21.623 156.431 22.214 157.157 22.64C157.889 23.06 158.738 23.27 159.704 23.27ZM159.686 14.675C161.156 14.675 161.99 15.518 162.188 17.204H156.914C157.034 16.382 157.325 15.755 157.787 15.323C158.249 14.891 158.882 14.675 159.686 14.675ZM169.85 23.261C171.08 23.261 172.043 22.988 172.739 22.442C173.441 21.896 173.792 21.143 173.792 20.183C173.792 19.679 173.687 19.253 173.477 18.905C173.273 18.557 172.931 18.257 172.451 18.005C171.971 17.747 171.323 17.513 170.507 17.303C169.745 17.111 169.169 16.946 168.779 16.808C168.395 16.664 168.134 16.52 167.996 16.376C167.858 16.226 167.789 16.043 167.789 15.827C167.789 15.455 167.966 15.164 168.32 14.954C168.674 14.738 169.136 14.642 169.706 14.666C170.3 14.69 170.783 14.84 171.155 15.116C171.527 15.386 171.746 15.752 171.812 16.214L173.738 15.863C173.63 14.999 173.207 14.309 172.469 13.793C171.731 13.271 170.804 13.01 169.688 13.01C168.548 13.01 167.633 13.277 166.943 13.811C166.253 14.339 165.908 15.044 165.908 15.926C165.908 16.4 166.01 16.805 166.214 17.141C166.424 17.471 166.772 17.759 167.258 18.005C167.75 18.251 168.413 18.485 169.247 18.707C170.009 18.911 170.576 19.082 170.948 19.22C171.32 19.358 171.563 19.505 171.677 19.661C171.797 19.811 171.857 20.009 171.857 20.255C171.857 20.675 171.689 21.005 171.353 21.245C171.023 21.485 170.564 21.605 169.976 21.605C169.328 21.605 168.785 21.461 168.347 21.173C167.915 20.885 167.639 20.486 167.519 19.976L165.593 20.273C165.761 21.221 166.217 21.956 166.961 22.478C167.705 23 168.668 23.261 169.85 23.261Z" fill="#1E1B1B"/>
<path d="M243.707 16.7071C244.098 16.3166 244.098 15.6834 243.707 15.2929L237.343 8.92893C236.953 8.53841 236.319 8.53841 235.929 8.92893C235.538 9.31946 235.538 9.95262 235.929 10.3431L241.586 16L235.929 21.6569C235.538 22.0474 235.538 22.6805 235.929 23.0711C236.319 23.4616 236.953 23.4616 237.343 23.0711L243.707 16.7071ZM191 17H243V15H191V17Z" fill="#1E1B1B"/>
</svg>
